<svg width="26" height="32" viewBox="0 0 26 32" fill="none" xmlns="http://www.w3.org/2000/svg">
<path d="M21.3212 16.9288C21.3521 14.5333 22.6385 12.2667 24.6793 11.0121C23.3919 9.17338 21.2354 8.00758 18.9919 7.93739C16.599 7.68622 14.2792 9.36927 13.0598 9.36927C11.8168 9.36927 9.93936 7.96233 7.91767 8.00392C5.28248 8.08906 2.82583 9.58728 1.54376 11.8911C-1.21219 16.6626 0.843496 23.6751 3.48346 27.5321C4.8043 29.4207 6.34797 31.5303 8.36784 31.4555C10.3444 31.3735 11.0826 30.1951 13.4685 30.1951C15.8322 30.1951 16.5248 31.4555 18.5857 31.4079C20.7066 31.3735 22.0429 29.5109 23.3174 27.6044C24.2664 26.2587 24.9967 24.7714 25.4811 23.1976C22.9886 22.1434 21.3241 19.635 21.3212 16.9288Z" fill="white"/>
<path d="M17.4286 5.40089C18.585 4.01264 19.1547 2.22829 19.0168 0.426758C17.25 0.612322 15.618 1.45672 14.446 2.7917C13.2999 4.09605 12.7034 5.84901 12.8162 7.58168C14.5836 7.59988 16.3211 6.77837 17.4286 5.40089Z" fill="white"/>
</svg>
